<svg width="141" height="47" viewBox="0 0 141 47" fill="none" xmlns="http://www.w3.org/2000/svg">
<path d="M35.3529 8.30961C31.2159 8.32961 28.0699 11.0666 26.8929 15.4276C24.9179 12.3876 23.3769 8.91061 22.4929 5.97461L18.1379 5.99461L18.1919 17.5376C18.1967 18.6351 17.7655 19.6896 16.9932 20.4693C16.2208 21.249 15.1704 21.6901 14.0729 21.6956C12.9754 21.7004 11.921 21.2692 11.1413 20.4968C10.3616 19.7245 9.92049 18.6741 9.91493 17.5766L9.85993 6.03361L5.50293 6.05361L5.55693 17.5966C5.57993 22.3866 9.40693 26.1826 14.0909 26.1596C18.7749 26.1366 22.5689 22.3076 22.5469 17.5166L22.5369 15.5566C23.4149 17.2936 24.5129 19.1396 25.7199 20.7686L23.0569 33.5216L27.5209 33.5016L29.4409 24.2356C31.1879 25.3176 33.1409 25.9606 35.4369 25.9496C40.2289 25.9266 44.1319 21.9896 44.1069 16.9796C44.0887 14.6713 43.1581 12.464 41.5182 10.8395C39.8783 9.21493 37.6623 8.3051 35.3539 8.30861L35.3529 8.30961ZM35.4149 21.4866C33.6729 21.4946 31.9279 20.7406 30.5069 19.5486L30.9339 17.8056V17.7056C31.2539 15.8516 32.2159 12.6896 35.4839 12.6756C36.6362 12.6737 37.7426 13.127 38.5624 13.9368C39.3821 14.7466 39.8488 15.8474 39.8609 16.9996C39.7629 19.5046 37.7039 21.4746 35.4159 21.4856L35.4149 21.4866Z" fill="#6FDA44"/>
<path d="M52.552 26.144C51.272 26.144 50.28 25.8 49.576 25.112C48.872 24.424 48.52 23.44 48.52 22.16V10.496H50.824V22.064C50.824 22.752 50.992 23.28 51.328 23.648C51.68 24.016 52.176 24.2 52.816 24.2C53.536 24.2 54.136 24 54.616 23.6L55.336 25.256C54.984 25.56 54.56 25.784 54.064 25.928C53.584 26.072 53.08 26.144 52.552 26.144ZM46.36 15.176V13.28H54.472V15.176H46.36ZM58.1215 26V13.28H60.3295V16.736L60.1135 15.872C60.4655 14.992 61.0575 14.32 61.8895 13.856C62.7215 13.392 63.7455 13.16 64.9615 13.16V15.392C64.8655 15.376 64.7695 15.368 64.6735 15.368C64.5935 15.368 64.5135 15.368 64.4335 15.368C63.2015 15.368 62.2255 15.736 61.5055 16.472C60.7855 17.208 60.4255 18.272 60.4255 19.664V26H58.1215ZM74.7597 26V23.312L74.6397 22.808V18.224C74.6397 17.248 74.3517 16.496 73.7757 15.968C73.2157 15.424 72.3677 15.152 71.2317 15.152C70.4797 15.152 69.7437 15.28 69.0237 15.536C68.3037 15.776 67.6957 16.104 67.1997 16.52L66.2397 14.792C66.8957 14.264 67.6797 13.864 68.5917 13.592C69.5197 13.304 70.4877 13.16 71.4957 13.16C73.2397 13.16 74.5837 13.584 75.5277 14.432C76.4717 15.28 76.9437 16.576 76.9437 18.32V26H74.7597ZM70.5837 26.144C69.6397 26.144 68.8077 25.984 68.0877 25.664C67.3837 25.344 66.8397 24.904 66.4557 24.344C66.0717 23.768 65.8797 23.12 65.8797 22.4C65.8797 21.712 66.0397 21.088 66.3597 20.528C66.6957 19.968 67.2317 19.52 67.9677 19.184C68.7197 18.848 69.7277 18.68 70.9917 18.68H75.0237V20.336H71.0877C69.9357 20.336 69.1597 20.528 68.7597 20.912C68.3597 21.296 68.1597 21.76 68.1597 22.304C68.1597 22.928 68.4077 23.432 68.9037 23.816C69.3997 24.184 70.0877 24.368 70.9677 24.368C71.8317 24.368 72.5837 24.176 73.2237 23.792C73.8797 23.408 74.3517 22.848 74.6397 22.112L75.0957 23.696C74.7917 24.448 74.2557 25.048 73.4877 25.496C72.7197 25.928 71.7517 26.144 70.5837 26.144ZM87.9994 13.16C89.0394 13.16 89.9514 13.36 90.7354 13.76C91.5354 14.16 92.1594 14.768 92.6074 15.584C93.0554 16.4 93.2794 17.432 93.2794 18.68V26H90.9754V18.944C90.9754 17.712 90.6714 16.784 90.0634 16.16C89.4714 15.536 88.6314 15.224 87.5434 15.224C86.7274 15.224 86.0154 15.384 85.4074 15.704C84.7994 16.024 84.3274 16.496 83.9914 17.12C83.6714 17.744 83.5114 18.52 83.5114 19.448V26H81.2074V13.28H83.4154V16.712L83.0554 15.8C83.4714 14.968 84.1114 14.32 84.9754 13.856C85.8394 13.392 86.8474 13.16 87.9994 13.16ZM101.191 26.144C100.135 26.144 99.1274 26 98.1674 25.712C97.2234 25.424 96.4794 25.072 95.9354 24.656L96.8954 22.832C97.4394 23.2 98.1114 23.512 98.9114 23.768C99.7114 24.024 100.527 24.152 101.359 24.152C102.431 24.152 103.199 24 103.663 23.696C104.143 23.392 104.383 22.968 104.383 22.424C104.383 22.024 104.239 21.712 103.951 21.488C103.663 21.264 103.279 21.096 102.799 20.984C102.335 20.872 101.815 20.776 101.239 20.696C100.663 20.6 100.087 20.488 99.5114 20.36C98.9354 20.216 98.4074 20.024 97.9274 19.784C97.4474 19.528 97.0634 19.184 96.7754 18.752C96.4874 18.304 96.3434 17.712 96.3434 16.976C96.3434 16.208 96.5594 15.536 96.9914 14.96C97.4234 14.384 98.0314 13.944 98.8154 13.64C99.6154 13.32 100.559 13.16 101.647 13.16C102.479 13.16 103.319 13.264 104.167 13.472C105.031 13.664 105.735 13.944 106.279 14.312L105.295 16.136C104.719 15.752 104.119 15.488 103.495 15.344C102.871 15.2 102.247 15.128 101.623 15.128C100.615 15.128 99.8634 15.296 99.3674 15.632C98.8714 15.952 98.6234 16.368 98.6234 16.88C98.6234 17.312 98.7674 17.648 99.0554 17.888C99.3594 18.112 99.7434 18.288 100.207 18.416C100.687 18.544 101.215 18.656 101.791 18.752C102.367 18.832 102.943 18.944 103.519 19.088C104.095 19.216 104.615 19.4 105.079 19.64C105.559 19.88 105.943 20.216 106.231 20.648C106.535 21.08 106.687 21.656 106.687 22.376C106.687 23.144 106.463 23.808 106.015 24.368C105.567 24.928 104.935 25.368 104.119 25.688C103.303 25.992 102.327 26.144 101.191 26.144ZM109.903 26V12.152C109.903 10.904 110.263 9.912 110.983 9.176C111.719 8.424 112.759 8.048 114.103 8.048C114.599 8.048 115.071 8.112 115.519 8.24C115.983 8.352 116.375 8.536 116.695 8.792L115.999 10.544C115.759 10.352 115.487 10.208 115.183 10.112C114.879 10 114.559 9.944 114.223 9.944C113.551 9.944 113.039 10.136 112.687 10.52C112.335 10.888 112.159 11.44 112.159 12.176V13.88L112.207 14.936V26H109.903ZM107.743 15.176V13.28H115.855V15.176H107.743ZM123.504 26.144C122.144 26.144 120.944 25.864 119.904 25.304C118.88 24.744 118.08 23.976 117.504 23C116.944 22.024 116.664 20.904 116.664 19.64C116.664 18.376 116.936 17.256 117.48 16.28C118.04 15.304 118.8 14.544 119.76 14C120.736 13.44 121.832 13.16 123.048 13.16C124.28 13.16 125.368 13.432 126.312 13.976C127.256 14.52 127.992 15.288 128.52 16.28C129.064 17.256 129.336 18.4 129.336 19.712C129.336 19.808 129.328 19.92 129.312 20.048C129.312 20.176 129.304 20.296 129.288 20.408H118.464V18.752H128.088L127.152 19.328C127.168 18.512 127 17.784 126.648 17.144C126.296 16.504 125.808 16.008 125.184 15.656C124.576 15.288 123.864 15.104 123.048 15.104C122.248 15.104 121.536 15.288 120.912 15.656C120.288 16.008 119.8 16.512 119.448 17.168C119.096 17.808 118.92 18.544 118.92 19.376V19.76C118.92 20.608 119.112 21.368 119.496 22.04C119.896 22.696 120.448 23.208 121.152 23.576C121.856 23.944 122.664 24.128 123.576 24.128C124.328 24.128 125.008 24 125.616 23.744C126.24 23.488 126.784 23.104 127.248 22.592L128.52 24.08C127.944 24.752 127.224 25.264 126.36 25.616C125.512 25.968 124.56 26.144 123.504 26.144ZM132.536 26V13.28H134.744V16.736L134.528 15.872C134.88 14.992 135.472 14.32 136.304 13.856C137.136 13.392 138.16 13.16 139.376 13.16V15.392C139.28 15.376 139.184 15.368 139.088 15.368C139.008 15.368 138.928 15.368 138.848 15.368C137.616 15.368 136.64 15.736 135.92 16.472C135.2 17.208 134.84 18.272 134.84 19.664V26H132.536Z" fill="black"/>
</svg>
