<svg width="102" height="23" viewBox="0 0 102 23" fill="none" xmlns="http://www.w3.org/2000/svg">
<g clip-path="url(#clip0_378_651)">
<path d="M15.3831 14.1564V6.7539C15.3831 4.64595 14.2621 3.6519 12.3798 3.6519C11.688 3.66059 11.0083 3.83472 10.3975 4.15973C9.78673 4.48475 9.26259 4.95121 8.8689 5.52015C8.4882 4.34985 7.5294 3.6519 6.02775 3.6519C5.3898 3.66247 4.7615 3.80951 4.18511 4.08311C3.60871 4.35672 3.09757 4.75056 2.68605 5.23815V3.89865H0V14.1564H2.68605V7.25445C3.0879 6.69045 3.87045 6.0489 4.80105 6.0489C5.90085 6.0489 6.32385 6.7257 6.32385 7.6845V14.1564H9.0381V7.2333C9.27474 6.88548 9.58898 6.59743 9.95603 6.39188C10.3231 6.18633 10.7329 6.06891 11.1531 6.0489C12.2529 6.0489 12.6759 6.7257 12.6759 7.6845V14.1564H15.3831ZM22.7574 14.4102C26.1414 14.4102 28.1788 11.9427 28.1788 9.01695C28.1788 6.11235 26.1484 3.6519 22.7574 3.6519C19.3945 3.6519 17.3641 6.11235 17.3641 9.01695C17.3641 11.9497 19.3945 14.4102 22.7574 14.4102ZM22.7574 12.0132C21.0865 12.0132 20.1559 10.6314 20.1559 9.01695C20.1559 7.4307 21.0865 6.0489 22.7644 6.0489C24.4353 6.0489 25.387 7.4307 25.387 9.01695C25.387 10.6314 24.4353 12.0132 22.7574 12.0132ZM39.762 14.1564V6.909C39.762 4.91385 38.6763 3.64485 36.4344 3.64485C35.7594 3.63546 35.0904 3.77239 34.4734 4.04621C33.8563 4.32004 33.3059 4.72427 32.86 5.2311V3.8916H30.174V14.1493H32.853V7.2474C33.1203 6.87768 33.4708 6.57595 33.8761 6.36655C34.2815 6.15714 34.7303 6.04592 35.1865 6.04185C36.3286 6.04185 37.0689 6.53535 37.0689 7.94535V14.1493H39.7549L39.762 14.1564ZM47.1645 14.4102C50.5485 14.4102 52.5859 11.9427 52.5859 9.01695C52.5859 6.11235 50.5555 3.6519 47.1645 3.6519C43.8016 3.6519 41.7712 6.11235 41.7712 9.01695C41.7712 11.9497 43.8016 14.4102 47.1645 14.4102ZM47.1645 12.0132C45.4936 12.0132 44.563 10.6314 44.563 9.01695C44.563 7.4307 45.4936 6.0489 47.1715 6.0489C48.8353 6.0489 49.7871 7.4307 49.7871 9.01695C49.7871 10.6314 48.8353 12.0132 47.1645 12.0132ZM57.2671 10.864V7.2333C57.5365 6.874 57.884 6.58066 58.2833 6.37547C58.6827 6.17027 59.1236 6.0586 59.5725 6.0489C61.1376 6.0489 62.181 7.25445 62.181 9.0381C62.181 10.8217 61.1376 12.0132 59.5725 12.0132C58.7053 12.0132 57.7113 11.5197 57.2671 10.864ZM57.2671 14.1564V12.831C57.6357 13.3183 58.1119 13.7137 58.6585 13.9865C59.2052 14.2592 59.8076 14.4018 60.4185 14.4031C62.9988 14.4031 64.9446 12.4503 64.9446 9.03105C64.9446 5.6823 63.0199 3.64485 60.4185 3.64485C59.2129 3.64485 58.0708 4.1736 57.2671 5.20995V0H54.5811V14.1564H57.2601H57.2671ZM75.8016 14.1564V7.5294C75.8016 4.5825 73.6654 3.6519 71.3389 3.6519C69.7027 3.62364 68.1127 4.19542 66.8692 5.2593L67.8844 7.0641C68.6869 6.28993 69.7586 5.85769 70.8736 5.85855C72.2272 5.85855 73.1155 6.53535 73.1155 7.57875V8.9535C72.4387 8.1498 71.2332 7.70565 69.8725 7.70565C68.251 7.70565 66.3193 8.62215 66.3193 11.0191C66.3193 13.3033 68.244 14.4031 69.8725 14.4031C71.212 14.4031 72.4105 13.9237 73.1155 13.0918V14.1493H75.7945L75.8016 14.1564ZM70.9582 12.5842C69.9007 12.5842 69.0265 12.0343 69.0265 11.0756C69.0265 10.0815 69.8937 9.52455 70.9582 9.52455C71.8254 9.52455 72.6714 9.8277 73.1155 10.4199V11.6889C72.6714 12.2881 71.8254 12.5842 70.9582 12.5842ZM88.0545 14.1564V6.909C88.0545 4.91385 86.9758 3.64485 84.7269 3.64485C84.0519 3.63546 83.3829 3.77239 82.7659 4.04621C82.1488 4.32004 81.5984 4.72427 81.1525 5.2311V3.8916H78.4665V14.1493H81.1525V7.2474C81.4188 6.87823 81.768 6.57678 82.1721 6.36737C82.5762 6.15797 83.0239 6.04646 83.479 6.04185C84.6282 6.04185 85.3684 6.53535 85.3684 7.94535V14.1493H88.0474L88.0545 14.1564ZM100.709 14.1564L96.5427 8.55165L100.582 3.89865H97.29L93.4125 8.46705V0H90.7335V14.1564H93.4125V11.5197L94.6462 10.2084L97.3534 14.1564H100.716H100.709Z" fill="black"/>
<path opacity="0.6" fill-rule="evenodd" clip-rule="evenodd" d="M99.0947 18.7951H99.7785V20.9806H99.8138L100.695 19.9231H101.323L100.357 21.0723L101.52 22.5034H100.744L99.7856 21.1639H99.7785V22.5034H99.0947V18.7951ZM66.848 18.9643V20.9947C66.848 21.6856 67.0525 22.0663 67.6235 22.0663C68.1664 22.0663 68.3849 21.6081 68.3849 21.037V18.9643H69.0194V21.1498C69.0194 22.0452 68.4413 22.5528 67.6024 22.5528C66.6365 22.5528 66.1289 22.0804 66.1289 21.1146V18.9643H66.848ZM70.5211 20.2686C70.7537 20.0289 71.071 19.9161 71.3882 19.9161C71.9875 19.9161 72.3047 20.2333 72.3047 20.8749V22.4964H71.6279V20.9454C71.6279 20.5929 71.4658 20.3602 71.1203 20.3602C70.789 20.3602 70.5281 20.5788 70.5281 20.9947V22.4964H69.8513V19.9725H70.5211V20.2686ZM73.0943 22.4964H73.7711V19.9725H73.0943V22.4964ZM73.0238 19.2181C73.0238 19.0207 73.193 18.8233 73.4186 18.8233C73.6513 18.8233 73.8416 19.0207 73.8416 19.2181C73.8416 19.4296 73.6795 19.6411 73.4327 19.6411C73.193 19.6411 73.0309 19.4296 73.0309 19.2181H73.0238ZM75.2657 22.4964L74.18 19.9584H74.8991C75.1177 20.5435 75.3433 21.0864 75.5618 21.7914H75.5689C75.8015 21.0864 76.013 20.5435 76.2457 19.9584H76.8802L75.7381 22.4964H75.2657ZM78.8894 20.9383C78.9176 20.5506 78.7837 20.2897 78.4453 20.2897C78.0575 20.2897 77.8813 20.5929 77.8954 20.9313H78.8894V20.9383ZM77.8813 21.2908C77.8672 21.7702 78.1985 22.1227 78.6215 22.1227C78.8753 22.1227 79.1362 22.0381 79.3054 21.9253L79.4957 22.2778C79.1503 22.4752 78.7907 22.5598 78.5017 22.5598C77.7332 22.5598 77.1622 22.017 77.1622 21.1851C77.1622 20.4096 77.7262 19.9161 78.4523 19.9161C79.249 19.9161 79.5803 20.5435 79.531 21.2979H77.8813V21.2908ZM80.8564 20.4166H80.8634L81.0044 20.2192C81.0749 20.1064 81.23 19.9161 81.4415 19.9161C81.5896 19.9161 81.7517 19.9936 81.8998 20.1417L81.6389 20.607C81.5435 20.548 81.4338 20.5163 81.3217 20.5153C81.089 20.5153 80.8564 20.7057 80.8564 21.2485V22.4964H80.1796V19.9725H80.8564V20.4166ZM83.6975 20.4448C83.5752 20.352 83.4278 20.298 83.2745 20.2897C83.1124 20.2897 82.9643 20.3743 82.9643 20.5435C82.9643 20.748 83.204 20.8608 83.4931 21.0652C83.8526 21.3402 83.9583 21.601 83.9583 21.8337C83.9583 22.1862 83.5706 22.5598 83.0066 22.5598C82.7015 22.5598 82.4047 22.4609 82.1606 22.2778L82.3721 21.9253C82.5272 22.0452 82.7458 22.165 82.9291 22.165C83.1194 22.165 83.2957 22.0663 83.2957 21.8548C83.2957 21.6151 83.0278 21.4812 82.7881 21.312C82.492 21.1146 82.2946 20.9242 82.2946 20.607C82.2946 20.2122 82.6823 19.9161 83.1828 19.9161C83.4649 19.9161 83.7328 19.9866 83.9231 20.1487L83.6975 20.4448ZM85.6222 21.1498C85.2978 21.2626 85.1287 21.4459 85.1287 21.735C85.1287 21.9606 85.2697 22.1086 85.4318 22.1086C85.6997 22.1086 86.0522 21.7773 86.0028 21.037L85.6292 21.1569L85.6222 21.1498ZM85.8337 22.2567C85.6574 22.4047 85.4247 22.5598 85.1921 22.5598C84.7902 22.5598 84.4589 22.2567 84.4589 21.7914C84.4589 21.312 84.8114 21.0441 85.4036 20.8749L86.0028 20.6916C85.9827 20.584 85.9247 20.4872 85.8394 20.4186C85.754 20.3501 85.647 20.3144 85.5376 20.3179C85.2556 20.3179 85.0441 20.4237 84.8678 20.5717L84.6563 20.2545C84.9665 20.0007 85.2767 19.9161 85.6292 19.9161C86.0945 19.9161 86.6656 20.0571 86.6656 20.8537V21.883C86.6656 22.0875 86.6937 22.3201 86.7783 22.4964H86.0593C86.0063 22.3817 85.982 22.2559 85.9888 22.1298L85.8407 22.2567H85.8337ZM87.4199 22.4964H88.1038V18.7881H87.4199V22.4964ZM94.0892 21.1498C93.7579 21.2626 93.5957 21.4459 93.5957 21.735C93.5957 21.9606 93.7367 22.1086 93.8989 22.1086C94.1668 22.1086 94.5122 21.7773 94.4629 21.037L94.0892 21.1569V21.1498ZM94.3007 22.2567C94.1174 22.4047 93.8777 22.5598 93.6521 22.5598C93.2573 22.5598 92.9259 22.2567 92.9259 21.7914C92.9259 21.312 93.2785 21.0441 93.8636 20.8749L94.4629 20.6916C94.4427 20.584 94.3847 20.4872 94.2994 20.4186C94.214 20.3501 94.107 20.3144 93.9976 20.3179C93.7156 20.3179 93.5041 20.4237 93.3278 20.5717L93.1163 20.2545C93.4265 20.0007 93.7367 19.9161 94.0892 19.9161C94.5545 19.9161 95.1255 20.0571 95.1255 20.8537V21.883C95.1255 22.0875 95.1537 22.3201 95.2383 22.4964H94.5193C94.4699 22.4118 94.4488 22.2637 94.4488 22.1298L94.3007 22.2567ZM96.5567 20.2686C96.7894 20.0289 97.1066 19.9161 97.4239 19.9161C98.0231 19.9161 98.3404 20.2333 98.3404 20.8749V22.4964H97.6635V20.9454C97.6635 20.5929 97.5014 20.3602 97.1489 20.3602C96.8246 20.3602 96.5638 20.5788 96.5638 20.9947V22.4964H95.8799V19.9725H96.5496V20.2686H96.5567ZM90.5713 22.0734H90.9308C91.3326 22.0734 91.6358 21.8619 91.6358 21.4741C91.6358 21.0582 91.3185 20.8819 90.9308 20.8819H90.5713V22.0734ZM90.5713 20.4519H90.7898C91.2058 20.4519 91.4878 20.184 91.4878 19.8526C91.4878 19.5424 91.2481 19.4085 90.9379 19.4085H90.5642V20.4448L90.5713 20.4519ZM89.8521 22.5105V18.9643H91.1353C91.7345 18.9643 92.1575 19.2393 92.1575 19.7187C92.1575 20.2827 91.6993 20.5153 91.4525 20.5788V20.5929C91.8896 20.614 92.3831 20.9172 92.3831 21.453C92.3831 22.0663 91.8684 22.5034 91.0295 22.5034H89.8521V22.5105Z" fill="black"/>
</g>
<defs>
<clipPath id="clip0_378_651">
<rect width="101.52" height="22.56" fill="white"/>
</clipPath>
</defs>
</svg>
