<svg width="95" height="16" viewBox="0 0 95 16" fill="none" xmlns="http://www.w3.org/2000/svg">
<g clip-path="url(#clip0_378_655)">
<path fill-rule="evenodd" clip-rule="evenodd" d="M17.7797 13.2164L15.4702 13.214L15.4787 5.29395L23.7929 5.3022L23.7848 13.2222L21.4753 13.2198L21.482 6.83846L17.7865 6.83502L17.7797 13.2164Z" fill="#4EA524"/>
<path fill-rule="evenodd" clip-rule="evenodd" d="M26.9372 10.3398C26.9388 8.73388 27.9606 8.41719 28.6046 8.41789C29.2346 8.41846 30.2559 8.73747 30.254 10.3432C30.2531 11.3391 29.8185 12.289 28.6004 12.2876C27.3547 12.2864 26.936 11.3355 26.9372 10.3398ZM24.91 7.47496L24.9016 15.3155L27.0295 15.3174L27.0323 12.6354C27.7453 13.3846 28.9072 13.4417 29.1872 13.4419C31.2167 13.4441 32.4638 12.1902 32.4655 10.3671C32.4676 8.46661 31.2376 7.26656 29.236 7.26466C28.7317 7.26381 27.7517 7.34256 26.9396 8.16797H26.8971L26.9124 7.477L24.91 7.47496Z" fill="#4EA524"/>
<path fill-rule="evenodd" clip-rule="evenodd" d="M37.74 12.5448C36.9558 13.2574 36.1991 13.449 35.3596 13.4483C33.0639 13.4459 32.9817 11.7714 32.9824 11.0812L32.9862 7.4834L35.1141 7.48537L35.1106 10.8121C35.1092 11.9547 35.5146 12.2942 36.2983 12.2949C37.642 12.2963 37.7415 11.1306 37.7419 10.7126L37.7453 7.48798L39.8729 7.49017L39.867 13.2377L37.7393 13.2357L37.74 12.5448Z" fill="#4EA524"/>
<path fill-rule="evenodd" clip-rule="evenodd" d="M42.9231 8.6479L44.0711 8.64903C44.6728 8.64967 45.1905 8.74026 45.1902 9.21501C45.1895 9.73537 44.3779 9.74665 44.0283 9.74636L42.9221 9.74531L42.9231 8.6479ZM40.7973 7.49121L40.7913 13.2396L45.0185 13.2437C46.5584 13.2451 47.6221 12.9504 47.6234 11.7754C47.6244 10.8702 47.1068 10.4737 45.9309 10.2685V10.2345C46.7007 10.1336 47.3725 9.67058 47.3736 8.88958C47.375 7.49777 45.696 7.496 45.0379 7.4953L40.7973 7.49121ZM42.9211 10.8201L44.2233 10.8215C45.2306 10.8225 45.4401 11.1162 45.4398 11.5008C45.4394 11.7496 45.2993 12.0889 44.2496 12.088L42.9197 12.0866L42.9211 10.8201Z" fill="#4EA524"/>
<path fill-rule="evenodd" clip-rule="evenodd" d="M52.7753 10.8752C52.7738 12.0292 51.7381 12.3106 51.2198 12.3103C50.8284 12.3099 50.1282 12.1855 50.1288 11.6412C50.1295 10.9958 50.9275 10.8735 51.3758 10.8173C52.2007 10.7042 52.1316 10.7382 52.7759 10.5127L52.7753 10.8752ZM50.3129 9.35664C50.314 8.5074 51.2373 8.44092 51.6159 8.4412C51.8542 8.44162 52.736 8.45389 52.7633 9.19978L52.763 9.35918C52.7203 9.9248 52.1601 9.8101 50.5921 10.0017C49.3044 10.1696 47.9466 10.4858 47.9451 11.7971C47.9446 12.2732 48.1533 13.4614 50.4207 13.4637C51.2891 13.4644 52.2408 13.2505 52.8012 12.6845H52.8438L53.0252 13.2512L55.264 13.2535V13.1522C54.8591 13.072 54.8305 12.6863 54.8459 12.0652L54.8909 9.43962C54.9048 8.77318 54.8362 7.29043 51.6314 7.28711C50.8614 7.28641 48.3844 7.35183 48.2842 9.3546L50.3129 9.35664Z" fill="#4EA524"/>
<path fill-rule="evenodd" clip-rule="evenodd" d="M55.1294 8.66051L55.1308 7.50586L61.9608 7.5127L61.9594 8.66735L59.6076 8.66502L59.6029 13.2587L57.4756 13.2566L57.4801 8.66298L55.1294 8.66051Z" fill="#4EA524"/>
<path fill-rule="evenodd" clip-rule="evenodd" d="M64.6745 9.82328L66.5918 9.82533C67.1507 9.82575 68.2706 9.88398 68.2697 10.8345C68.2688 11.5816 67.4568 11.7267 66.5471 11.7259L64.6723 11.724L64.6745 9.82328ZM64.6778 6.88203L69.9817 6.8874L69.9833 5.34866L62.3687 5.34082L62.3608 13.2609L67.0358 13.2657C69.3041 13.2681 70.7601 12.5001 70.7615 10.8825C70.7644 8.34814 67.853 8.2885 67.0414 8.28786L64.676 8.28546L64.6778 6.88203Z" fill="#4EA524"/>
<path fill-rule="evenodd" clip-rule="evenodd" d="M75.9962 10.8984C75.9948 12.0525 74.9592 12.3338 74.441 12.3336C74.049 12.3329 73.3504 12.2083 73.3504 11.6642C73.3518 11.0188 74.1491 10.8968 74.5968 10.8406C75.4224 10.7271 75.3526 10.7612 75.9962 10.536V10.8984ZM73.5344 9.38001C73.5358 8.5307 74.4586 8.46407 74.8365 8.4645C75.0755 8.4645 75.9575 8.47719 75.9843 9.22308V9.38248C75.9413 9.9481 75.3815 9.83318 73.8136 10.025C72.5255 10.1929 71.1684 10.5091 71.167 11.8204C71.1663 12.2966 71.375 13.4847 73.6423 13.4867C74.5101 13.4876 75.4626 13.2738 76.0223 12.7075H76.0653L76.2465 13.2745L78.4856 13.2765V13.1753C78.0795 13.0949 78.0513 12.7096 78.0661 12.0882L78.1112 9.46271C78.126 8.7962 78.057 7.31373 74.8513 7.31055C74.0822 7.30978 71.6048 7.37471 71.5047 9.3779L73.5344 9.38001Z" fill="#4EA524"/>
<path fill-rule="evenodd" clip-rule="evenodd" d="M81.1448 13.2795L79.0178 13.2774L79.0235 7.5293L81.1512 7.53134L81.1483 9.69322L83.7096 9.69597L83.7124 7.53423L85.8408 7.53628L85.8338 13.2841L83.7061 13.2822L83.7089 10.8499L81.1476 10.8472L81.1448 13.2795Z" fill="#4EA524"/>
<path fill-rule="evenodd" clip-rule="evenodd" d="M91.215 7.54113L93.581 7.5436L90.6525 10.2332L93.7136 13.2923L91.2221 13.2899L88.9294 10.7749H88.8885L88.8857 13.2874L86.7573 13.2854L86.7644 7.53711L88.8921 7.53901L88.8892 9.84711H88.9301L91.215 7.54113Z" fill="#4EA524"/>
<path fill-rule="evenodd" clip-rule="evenodd" d="M0 13.2177L5.32986 13.2228L5.33539 8.05488L0.00539172 8.0498L0 13.2177Z" fill="black"/>
<path fill-rule="evenodd" clip-rule="evenodd" d="M0.0207267 0L0.013916 6.43322L1.42286 6.43459C5.13109 6.43831 7.00953 8.26415 7.00556 11.8606L7.00414 13.2263L13.6372 13.2328L13.6514 0.0134869L0.0207267 0ZM10.8301 2.74361L10.8219 10.4975L9.73443 10.4965C9.26935 6.66153 6.78717 4.24973 2.83419 3.79117L2.83518 2.73576L10.8301 2.74361Z" fill="#4EA524"/>
</g>
<defs>
<clipPath id="clip0_378_655">
<rect width="94.47" height="15.51" fill="white"/>
</clipPath>
</defs>
</svg>
